<svg viewBox="0 0 24 24" fill="none" xmlns="http://www.w3.org/2000/svg">
<path d="M7.12031 20.9516H7.62031V20.4516V8.99531V8.49531H7.12031H3.55781H3.05781V8.99531V20.4516V20.9516H3.55781H7.12031ZM16.3937 20.4516V20.9516H16.8937H20.4516V20.4516H20.9516V14.1656C20.9516 12.6124 20.7895 11.1218 20.0911 10.0142C19.3593 8.85364 18.1067 8.20938 16.1813 8.20938C14.9519 8.20938 13.9656 8.64309 13.2687 9.23194V8.99531V8.49531H12.7687H9.35625H8.85625V8.99531V20.4516V20.9516H9.35625H12.9094H13.4094V20.4516V14.7891C13.4094 14.0503 13.4836 13.4267 13.7196 12.9973C13.8311 12.7944 13.9764 12.6399 14.1705 12.5322C14.3674 12.4229 14.6444 12.3453 15.0422 12.3453C15.4194 12.3453 15.6579 12.4325 15.8164 12.5433C15.976 12.6548 16.0977 12.8203 16.1885 13.0502C16.3815 13.539 16.3937 14.1972 16.3937 14.8828V20.4516ZM1.77187 0.5H22.2234C22.9401 0.5 23.5 1.06255 23.5 1.72969V22.2703C23.5 22.9336 22.9392 23.5 22.2234 23.5H1.77187C1.05871 23.5 0.5 22.9362 0.5 22.2656V1.72969C0.5 1.06085 1.05692 0.5 1.77187 0.5ZM2.77188 5.37187C2.77188 6.78782 3.91991 7.93438 5.33906 7.93438C6.75501 7.93438 7.90156 6.78165 7.90156 5.37187C7.90156 3.95667 6.75427 2.80937 5.33906 2.80937C3.91991 2.80937 2.77188 3.95593 2.77188 5.37187Z" 
    fill="var(--icon-color)"/>
</svg>
